<svg width="104" height="24" fill="none" xmlns="http://www.w3.org/2000/svg"><path fill-rule="evenodd" clip-rule="evenodd" d="M11.555 1.104h-.024a5.619 5.619 0 00-2.819.765l-.152.09-4.982 2.918a5.727 5.727 0 00-2.5 4.74v.04c0 .48.515.78.927.538l12.369-7.248a.626.626 0 00-.002-1.078 5.616 5.616 0 00-2.817-.765zm6.264 2.773a1.112 1.112 0 00-1.123.002l-15.06 8.824a1.134 1.134 0 00-.559.98v1.533c0 .115.004.229.011.343l.001.017c.051.818.962 1.28 1.664.868l6.242-3.657 2.99-1.752 2.176-1.275 5.175-3.033a1.14 1.14 0 00.035-1.94 5.307 5.307 0 00-.193-.118l-1.359-.792zm4.19 11.3a.595.595 0 00-.592-.597.58.58 0 00-.296.081L8.71 21.933a.6.6 0 00.001 1.032 5.613 5.613 0 002.807.767h.048a5.613 5.613 0 002.806-.767l4.805-2.8a5.73 5.73 0 002.83-4.95v-.037zm-.001-5.61c-.007-.707-.595-1.2-1.229-1.2-.208 0-.421.054-.62.17l-7.098 4.159-.654.384-8.48 4.969c-.795.465-.83 1.64-.037 2.107a.232.232 0 01.017.01l1.344.782a1.22 1.22 0 001.232-.002l14.913-8.738c.38-.222.612-.631.612-1.074V9.567z" fill="url(#paint0_linear)"/><path d="M32.148 17.175c1.396 0 2.199-.507 2.792-1.292V17h2.078v-5.987c0-2.496-1.606-3.334-3.648-3.334-2.043 0-3.736.89-3.91 3.02h2.042c.105-.908.646-1.432 1.745-1.432 1.24 0 1.659.611 1.659 1.833v.471H33.77c-2.618 0-4.678.768-4.678 2.898 0 1.903 1.379 2.706 3.055 2.706zm.506-1.52c-1.048 0-1.466-.505-1.466-1.273 0-1.117 1.03-1.484 2.635-1.484h1.083v.908c0 1.17-.96 1.85-2.252 1.85zm6.784 4.47h2.113v-4.556c.488.89 1.536 1.606 2.984 1.606 2.357 0 4.05-1.78 4.05-4.713v-.14c0-2.95-1.763-4.643-4.05-4.643-1.344 0-2.478.785-2.984 1.658V7.871h-2.113v12.254zm4.574-4.626c-1.536 0-2.531-.96-2.531-3.003v-.14c0-2.024 1.047-3.019 2.513-3.019 1.38 0 2.427.995 2.427 3.02v.14c0 1.954-.856 3.002-2.41 3.002zM50.537 17h2.112V7.87h-2.112V17zm1.03-10.63c.698 0 1.256-.524 1.256-1.205 0-.698-.558-1.222-1.256-1.222-.699 0-1.257.524-1.257 1.222 0 .681.558 1.205 1.257 1.205zm4.913 10.752c.786 0 1.397-.593 1.397-1.361s-.611-1.38-1.397-1.38a1.37 1.37 0 00-1.379 1.38c0 .768.611 1.361 1.379 1.361zM61.348 17h2.46l3.3-9.13h-2.077l-2.357 6.965-2.391-6.964h-2.27L61.349 17zm7.377 0h2.112V7.87h-2.112V17zm1.03-10.63c.698 0 1.257-.524 1.257-1.205 0-.698-.559-1.222-1.257-1.222-.698 0-1.257.524-1.257 1.222 0 .681.559 1.205 1.257 1.205zm7.078 10.805c1.344 0 2.513-.803 3.002-1.711V17h2.112V3.647h-2.112v5.62C79.33 8.36 78.404 7.68 76.92 7.68c-2.374 0-4.102 1.85-4.102 4.765v.14c0 2.967 1.728 4.59 4.015 4.59zm.523-1.676c-1.361 0-2.373-.96-2.373-2.968v-.14c0-1.972.907-3.054 2.46-3.054 1.537 0 2.462.995 2.462 3.002v.14c0 2.042-1.082 3.02-2.549 3.02zm11.116 1.676c2.34 0 3.893-1.048 4.19-2.968h-2.043c-.157.89-.82 1.397-2.094 1.397-1.572 0-2.444-.978-2.514-2.706h6.685v-.61c0-3.265-2.042-4.61-4.311-4.61-2.601 0-4.538 1.886-4.538 4.714v.14c0 2.88 1.937 4.643 4.625 4.643zm-2.426-5.69c.21-1.415 1.065-2.27 2.339-2.27 1.309 0 2.112.698 2.217 2.27h-4.556zm12.621 4.049c-1.606 0-2.53-1.17-2.53-3.038v-.14c0-1.884.96-3.019 2.53-3.019 1.571 0 2.514 1.152 2.514 3.037v.122c0 1.868-.943 3.038-2.514 3.038zm-.017 1.64c2.688 0 4.695-1.85 4.695-4.695v-.14c0-2.792-2.007-4.66-4.678-4.66-2.688 0-4.695 1.885-4.695 4.713v.14c0 2.775 1.99 4.643 4.678 4.643z" fill="#0D0D0D"/><defs><linearGradient id="paint0_linear" x1="22.008" y1="12.418" x2="1.077" y2="12.418" gradientUnits="userSpaceOnUse"><stop stop-color="#FA6E32"/><stop offset="1" stop-color="#FA4D30"/></linearGradient></defs></svg>